<?xml version="1.0" encoding="UTF-8" standalone="no"?>
<!-- Created with Inkscape (http://www.inkscape.org/) -->

<svg
   xmlns:dc="http://purl.org/dc/elements/1.1/"
   xmlns:cc="http://creativecommons.org/ns#"
   xmlns:rdf="http://www.w3.org/1999/02/22-rdf-syntax-ns#"
   xmlns:svg="http://www.w3.org/2000/svg"
   xmlns="http://www.w3.org/2000/svg"
   xmlns:sodipodi="http://sodipodi.sourceforge.net/DTD/sodipodi-0.dtd"
   xmlns:inkscape="http://www.inkscape.org/namespaces/inkscape"
   version="1.1"
   id="svg2"
   xml:space="preserve"
   width="793.70667"
   height="793.70667"
   viewBox="0 0 793.70667 793.70667"
   sodipodi:docname="CIGARETTE RECORDS LOGO.ai.svg"
   inkscape:version="0.92.3 (2405546, 2018-03-11)"><metadata
     id="metadata8"><rdf:RDF><cc:Work
         rdf:about=""><dc:format>image/svg+xml</dc:format><dc:type
           rdf:resource="http://purl.org/dc/dcmitype/StillImage" /><dc:title></dc:title></cc:Work></rdf:RDF></metadata><defs
     id="defs6"><clipPath
       clipPathUnits="userSpaceOnUse"
       id="clipPath18"><path
         d="M 0,595.28 H 595.28 V 0 H 0 Z"
         id="path16"
         inkscape:connector-curvature="0" /></clipPath></defs><sodipodi:namedview
     pagecolor="#ffffff"
     bordercolor="#666666"
     borderopacity="1"
     objecttolerance="10"
     gridtolerance="10"
     guidetolerance="10"
     inkscape:pageopacity="0"
     inkscape:pageshadow="2"
     inkscape:window-width="885"
     inkscape:window-height="643"
     id="namedview4"
     showgrid="false"
     inkscape:zoom="0.29733907"
     inkscape:cx="396.85333"
     inkscape:cy="491.71961"
     inkscape:window-x="0"
     inkscape:window-y="27"
     inkscape:window-maximized="0"
     inkscape:current-layer="g14" /><g
     id="g10"
     inkscape:groupmode="layer"
     inkscape:label="CIGARETTE RECORDS LOGO"
     transform="matrix(1.3333333,0,0,-1.3333333,0,793.70667)"><g
       clip-path="url(#clipPath18)"
       id="g14"
       transform="translate(-10.089492,10.089492)"><g
         transform="translate(116.3354,436.8691)"
         id="g20"><path
           inkscape:connector-curvature="0"
           id="path22"
           style="fill:#85878a;fill-opacity:1;fill-rule:nonzero;stroke:none"
           d="M 0,0 0.04,0.059 C 0.046,0.067 0.051,0.076 0.057,0.085 Z" /></g><g
         transform="translate(348.4092,526.3975)"
         id="g24"><path
           inkscape:connector-curvature="0"
           id="path26"
           style="fill:#85878a;fill-opacity:1;fill-rule:nonzero;stroke:none"
           d="M 0,0 V -0.001 H 0.002 Z" /></g><g
         transform="translate(211.7666,515.5186)"
         id="g28"><path
           inkscape:connector-curvature="0"
           id="path30"
           style="fill:#85878a;fill-opacity:1;fill-rule:nonzero;stroke:none"
           d="M 0,0 0.105,0.043 C 0.111,0.046 0.117,0.049 0.123,0.052 Z" /></g><g
         transform="translate(365.7275,366.3286)"
         id="g32"><path
           inkscape:connector-curvature="0"
           id="path34"
           style="fill:#85878a;fill-opacity:1;fill-rule:nonzero;stroke:none"
           d="m 0,0 -0.063,0.083 c 0,0.002 -0.001,0.002 -0.003,0.004 z" /></g><g
         transform="translate(175.1221,135.3096)"
         id="g40"><path
           inkscape:connector-curvature="0"
           id="path42"
           style="fill:#85878a;fill-opacity:1;fill-rule:nonzero;stroke:none"
           d="M 0,0 -0.113,0.077 C -0.125,0.085 -0.137,0.093 -0.149,0.101 Z" /></g><g
         transform="translate(131.3379,446.7222)"
         id="g44"><path
           inkscape:connector-curvature="0"
           id="path46"
           style="fill:#231f20;fill-opacity:1;fill-rule:nonzero;stroke:none"
           d="M 0,0 0.04,0.059 C 0.046,0.067 0.051,0.076 0.057,0.084 Z" /></g><g
         transform="translate(363.4111,536.2505)"
         id="g48"><path
           inkscape:connector-curvature="0"
           id="path50"
           style="fill:#231f20;fill-opacity:1;fill-rule:nonzero;stroke:none"
           d="M 0,0 C 0,0 0.001,0 0.001,-0.001 H 0.002 Z" /></g><g
         transform="translate(226.769,525.3716)"
         id="g52"><path
           inkscape:connector-curvature="0"
           id="path54"
           style="fill:#231f20;fill-opacity:1;fill-rule:nonzero;stroke:none"
           d="M 0,0 0.105,0.043 C 0.111,0.046 0.117,0.049 0.123,0.052 Z" /></g><g
         transform="translate(380.7295,376.1816)"
         id="g56"><path
           inkscape:connector-curvature="0"
           id="path58"
           style="fill:#231f20;fill-opacity:1;fill-rule:nonzero;stroke:none"
           d="M 0,0 -0.062,0.083 C -0.063,0.084 -0.064,0.085 -0.065,0.087 Z" /></g><g
         transform="translate(269.7876,226.5)"
         id="g60"><path
           inkscape:connector-curvature="0"
           id="path62"
           style="fill:#231f20;fill-opacity:1;fill-rule:nonzero;stroke:none"
           d="M 0,0 -0.01,0.004 C -0.021,0.008 -0.032,0.013 -0.042,0.017 Z" /></g><g
         transform="translate(214.793,278.8691)"
         id="g64"><path
           inkscape:connector-curvature="0"
           id="path66"
           style="fill:#231f20;fill-opacity:1;fill-rule:nonzero;stroke:none"
           d="M 0,0 V 0 C 0,0.001 -0.001,0.001 -0.001,0.002 Z" /></g><g
         transform="translate(337.1309,429.4551)"
         id="g68"><path
           inkscape:connector-curvature="0"
           id="path70"
           style="fill:#231f20;fill-opacity:1;fill-rule:nonzero;stroke:none"
           d="M 0,0 0.025,-0.006 C 0.028,-0.007 0.03,-0.008 0.033,-0.008 Z" /></g><g
         transform="translate(206.9878,301.0737)"
         id="g72"><path
           inkscape:connector-curvature="0"
           id="path74"
           style="fill:#231f20;fill-opacity:1;fill-rule:nonzero;stroke:none"
           d="M 0,0 V 0.002 L -0.023,0.101 Z" /></g><g
         transform="translate(145.47119,385.93728)"
         id="g76"><path
           inkscape:connector-curvature="0"
           id="path78"
           style="fill:none;stroke:#231f20;stroke-width:0.75;stroke-linecap:round;stroke-linejoin:round;stroke-miterlimit:4;stroke-dasharray:none;stroke-opacity:1"
           d="M 0,0 C 0,0 -0.001,0 -0.002,-0.001" /></g><g
         transform="translate(478.7939,392.834)"
         id="g84"><path
           inkscape:connector-curvature="0"
           id="path86"
           style="fill:#f68827;fill-opacity:1;fill-rule:nonzero;stroke:none"
           d="M 0,0 C -0.001,-0.001 -0.001,-0.003 -0.002,-0.005 L -0.039,-0.081 Z" /></g><g
         transform="translate(450.4502,178.5869)"
         id="g96"><path
           inkscape:connector-curvature="0"
           id="path98"
           style="fill:#f68827;fill-opacity:1;fill-rule:nonzero;stroke:none"
           d="M 0,0 C -0.002,-0.001 -0.004,-0.003 -0.006,-0.005 L -0.118,-0.111 Z" /></g><g
         transform="translate(247.7007,236.9844)"
         id="g104"><path
           inkscape:connector-curvature="0"
           id="path106"
           style="fill:#f68827;fill-opacity:1;fill-rule:nonzero;stroke:none"
           d="M 0,0 C 0,-0.002 0.001,-0.004 0.002,-0.006 L 0.01,-0.039 Z" /></g><g
         transform="translate(244.0334,636.7397)"
         id="g108"><path
           inkscape:connector-curvature="0"
           id="path110"
           style="fill:#231f20;fill-opacity:1;fill-rule:nonzero;stroke:none"
           d="m 80.3872,-236.6977 h -0.002 c -8.395,-0.001 -16.497,-0.955 -24.251,-2.745 h -10e-4 c -7.758,-1.791 -15.188,-4.424 -22.204,-7.804 h 0.002 c -3.697,-1.781 -7.276,-3.775 -10.729,-5.959 -4.666,-1.653 -9.679,-2.567 -14.941,-2.569 -6.208,0.001 -12.075,1.252 -17.428,3.515 -8.024,3.392 -14.881,9.083 -19.711,16.235 -4.83,7.158 -7.639,15.724 -7.642,25.03 0.002,7.507 1.83,14.521 5.068,20.718 3.237,6.192 7.896,11.549 13.532,15.618 l -0.116,0.162 c 7.107,4.136 14.504,7.841 22.155,11.081 23.435,9.921 49.314,15.412 76.209,15.412 h 0.054 0.012 0.005 0.003 c 16.083,0 31.813,-1.955 46.857,-5.654 h 0.002 c 15.043,-3.697 29.414,-9.133 42.856,-16.069 l 0.027,-0.013 c 11.841,-6.114 22.961,-13.387 33.222,-21.67 -0.367,0.007 -0.731,0.021 -1.098,0.021 -8.73,0.002 -17.093,-1.774 -24.684,-4.987 -11.391,-4.82 -21.053,-12.847 -27.888,-22.962 -6.708,-9.919 -10.678,-21.902 -10.822,-34.725 -9.938,6.489 -20.971,11.371 -32.778,14.273 l -0.011,0.003 c -8.192,2.011 -16.781,3.088 -25.698,3.089 m -82.75,-39.036 c -6.57,-7.961 -12,-16.865 -16.057,-26.459 l -0.004,-0.007 c -5.398,-12.777 -8.399,-26.804 -8.403,-41.706 v -0.006 c 0,-8.394 0.954,-16.495 2.744,-24.248 l 10e-4,-0.005 c 1.79,-7.757 4.423,-15.187 7.804,-22.202 4.901,-10.175 11.391,-19.479 19.137,-27.586 3.514,-4.582 6.199,-9.908 7.765,-15.873 1.002,-3.824 1.477,-7.639 1.477,-11.393 0.002,-9.909 -3.326,-19.424 -9.179,-27.114 -5.861,-7.69 -14.169,-13.517 -24.258,-16.167 -3.824,-1.002 -7.639,-1.477 -11.393,-1.477 -9.774,-0.003 -19.165,3.241 -26.798,8.946 -17.065,17.408 -30.903,37.988 -40.582,60.853 -9.921,23.435 -15.413,49.313 -15.412,76.209 v 0.054 0.013 0.005 0.015 c 0,20.176 3.081,39.79 8.814,58.209 l 0.001,0.002 c 5.735,18.438 14.113,35.7 24.669,51.324 l 0.02,0.028 c 7.993,11.824 17.233,22.715 27.537,32.499 -0.436,-2.999 -0.667,-6.063 -0.666,-9.175 -0.002,-8.729 1.774,-17.093 4.987,-24.683 4.82,-11.391 12.847,-21.053 22.962,-27.889 7.766,-5.252 16.797,-8.821 26.504,-10.196 -0.563,-0.652 -1.122,-1.307 -1.67,-1.971 m 20.106,-207.879 c 8.267,10.863 12.982,24.307 12.984,38.394 0,2.139 -0.114,4.291 -0.336,6.45 2.697,-1.426 5.453,-2.753 8.276,-3.947 l 0.039,-0.017 c 12.768,-5.389 26.785,-8.387 41.673,-8.391 h 0.013 c 14.376,0.004 27.935,2.798 40.346,7.84 l -0.061,-0.024 0.065,0.027 c 12.425,5.051 23.73,12.395 33.366,21.524 v 0.001 c 4.308,4.08 9.176,7.102 14.351,9.125 5.174,2.019 10.657,3.028 16.141,3.028 5.886,0 11.762,-1.163 17.244,-3.47 5.484,-2.311 10.575,-5.752 14.957,-10.375 4.081,-4.31 7.103,-9.177 9.125,-14.353 2.02,-5.173 3.029,-10.656 3.029,-16.14 0,-5.884 -1.163,-11.762 -3.471,-17.244 -2.31,-5.484 -5.752,-10.574 -10.375,-14.957 -17.53,-16.607 -38.146,-30.022 -60.952,-39.3 l -0.002,-10e-4 c -22.768,-9.266 -47.772,-14.376 -73.716,-14.376 h -0.049 -0.004 -0.025 c -20.179,0 -39.794,3.082 -58.214,8.815 h -0.001 c -17.3,5.381 -33.563,13.09 -48.41,22.739 3.214,0.331 6.441,0.906 9.652,1.749 14.212,3.721 26.098,12.04 34.355,22.903 m 221.663,253.848 c 1.506,-2.233 2.816,-4.604 3.906,-7.091 0.004,-0.008 0.007,-0.016 0.011,-0.024 0.044,-0.102 0.085,-0.208 0.128,-0.311 0.427,-1.039 0.814,-2.089 1.157,-3.147 1.433,-4.433 2.139,-9.024 2.139,-13.603 0.001,-6.805 -1.562,-13.576 -4.59,-19.712 -3.033,-6.138 -7.506,-11.639 -13.42,-16.008 -0.658,-0.486 -1.327,-0.942 -1.999,-1.385 -0.261,-0.177 -0.529,-0.342 -0.794,-0.514 -0.095,-0.059 -0.187,-0.123 -0.283,-0.181 -6.9,-4.4 -15.087,-6.959 -23.878,-6.959 -17.109,0 -31.952,9.66 -39.399,23.818 -0.125,0.149 -0.245,0.302 -0.371,0.449 -1.022,2.089 -1.876,4.271 -2.566,6.526 -1.397,4.317 -2.16,8.919 -2.16,13.702 0,24.573 19.921,44.494 44.496,44.494 7.792,0 15.112,-2.008 21.482,-5.527 6.487,-3.453 12.044,-8.461 16.141,-14.527 m -111.175,-42.754 c 8.218,-5.523 15.483,-12.48 21.361,-20.447 l 0.005,-0.006 c 6.413,-8.689 14.621,-15.38 23.712,-19.862 9.096,-4.487 19.075,-6.787 29.131,-6.788 6.765,0 13.57,1.044 20.153,3.173 6.581,2.128 12.94,5.346 18.785,9.662 8.692,6.413 15.384,14.623 19.867,23.716 4.488,9.096 6.788,19.075 6.788,29.13 0,6.766 -1.043,13.571 -3.172,20.153 -2.128,6.582 -5.346,12.942 -9.661,18.786 l -0.16,0.214 0.159,-0.213 c -19.754,26.75 -45.458,48.772 -75.289,64.176 l -0.061,0.031 0.059,-0.031 c -14.916,7.7 -30.866,13.735 -47.567,17.838 -16.696,4.104 -34.131,6.27 -51.939,6.27 h -0.013 -0.016 -0.015 -0.03 c -29.796,0 -58.493,-6.083 -84.507,-17.097 l -0.018,-0.008 c -39.045,-16.531 -72.081,-43.988 -95.477,-78.606 l -0.019,-0.028 c -11.694,-17.313 -20.981,-36.448 -27.339,-56.893 v 0.002 c -6.363,-20.445 -9.776,-42.19 -9.776,-64.535 v -0.026 -0.009 -0.009 -0.043 c 0,-29.796 6.082,-58.493 17.096,-84.508 16.532,-39.052 43.992,-72.094 78.615,-95.495 l 0.151,-0.101 -0.149,0.1 c 17.319,-11.702 36.462,-20.994 56.919,-27.356 l -0.254,0.079 0.252,-0.079 c 20.394,-6.347 42.082,-9.757 64.368,-9.774 l 0.094,-0.002 h 0.077 0.018 0.007 0.053 c 28.742,0 56.466,5.658 81.741,15.947 l -0.003,-10e-4 c 25.297,10.289 48.149,25.163 67.572,43.565 6.79,6.431 11.934,14.018 15.354,22.151 3.424,8.136 5.139,16.816 5.139,25.502 0,8.094 -1.489,16.201 -4.487,23.88 -2.995,7.679 -7.509,14.929 -13.502,21.253 -6.43,6.79 -14.018,11.933 -22.151,15.355 -8.135,3.423 -16.816,5.137 -25.502,5.137 -8.094,0 -16.2,-1.489 -23.88,-4.486 -7.679,-2.995 -14.93,-7.509 -21.253,-13.503 h -0.001 c -7.737,-7.332 -16.813,-13.223 -26.741,-17.258 l 0.006,0.002 c -9.97,-4.041 -20.703,-6.264 -32.345,-6.276 -12.066,0.013 -23.164,2.399 -33.434,6.728 l 0.007,-0.002 c -7.67,3.243 -14.812,7.595 -21.203,12.871 h -0.002 c -9.586,7.906 -17.454,17.89 -22.854,29.109 l -10e-4,0.004 c -2.707,5.618 -4.807,11.546 -6.24,17.751 l 0.011,-0.051 -0.011,0.049 c -1.433,6.211 -2.198,12.679 -2.199,19.464 0.012,12.068 2.398,23.165 6.728,33.435 3.243,7.668 7.595,14.808 12.867,21.197 l 0.002,0.002 c 7.906,9.586 17.89,17.455 29.11,22.855 l 0.003,10e-4 c 5.618,2.707 11.546,4.807 17.751,6.24 h -10e-4 c 6.211,1.432 12.679,2.198 19.465,2.199 7.213,-0.002 14.066,-0.866 20.632,-2.477 l -0.036,0.009 0.034,-0.008 c 9.831,-2.418 18.983,-6.524 27.216,-12.058" /></g></g></g></svg>